<svg xmlns="http://www.w3.org/2000/svg" width="44" height="44" viewBox="0 0 44 44" fill="white" class="cursor-pointer fill-black-100 "><path fill-rule="evenodd" clip-rule="evenodd" d="M10 15.75C10 15.3358 10.3358 15 10.75 15H33.25C33.6642 15 34 15.3358 34 15.75C34 16.1642 33.6642 16.5 33.25 16.5H10.75C10.3358 16.5 10 16.1642 10 15.75ZM10 21.75C10 21.3358 10.3358 21 10.75 21H33.25C33.6642 21 34 21.3358 34 21.75C34 22.1642 33.6642 22.5 33.25 22.5H10.75C10.3358 22.5 10 22.1642 10 21.75ZM10.75 27C10.3358 27 10 27.3358 10 27.75C10 28.1642 10.3358 28.5 10.75 28.5H33.25C33.6642 28.5 34 28.1642 34 27.75C34 27.3358 33.6642 27 33.25 27H10.75Z"></path></svg>